<?xml version="1.0" standalone="no"?>
<!DOCTYPE svg PUBLIC "-//W3C//DTD SVG 20010904//EN"
 "http://www.w3.org/TR/2001/REC-SVG-20010904/DTD/svg10.dtd">
<svg version="1.0" xmlns="http://www.w3.org/2000/svg"
 width="260.000000pt" height="260.000000pt" viewBox="0 0 260.000000 260.000000"
 preserveAspectRatio="xMidYMid meet">
<metadata>
Created by potrace 1.14, written by Peter Selinger 2001-2017
</metadata>
<g transform="translate(0.000000,260.000000) scale(0.100000,-0.100000)"
fill="#000000" stroke="none">
<path d="M803 2559 c-79 -10 -139 -36 -192 -85 -86 -77 -116 -163 -109 -316 8
-187 34 -225 314 -474 90 -80 184 -170 209 -200 56 -69 80 -143 72 -226 -10
-111 -66 -163 -172 -162 -41 0 -71 7 -93 20 -63 37 -108 134 -127 272 -6 49
-9 53 -29 48 -11 -4 -58 -16 -103 -27 l-82 -21 5 -47 c34 -284 181 -431 429
-431 173 0 308 83 363 222 l21 53 0 -563 1 -563 283 3 282 3 62 29 c157 72
233 234 220 470 -9 175 -66 280 -185 338 -57 28 -62 33 -41 39 137 36 206 196
179 414 -18 152 -86 244 -217 296 -54 22 -74 24 -320 27 l-263 3 -1 -133 0
-133 -23 63 c-43 115 -123 207 -357 413 -199 175 -219 204 -219 323 0 124 88
191 217 165 90 -18 143 -96 159 -235 4 -30 8 -54 11 -54 2 0 46 12 99 27 l95
26 -6 51 c-25 184 -118 314 -248 350 -69 19 -158 25 -234 15z m1012 -1078 c69
-30 89 -68 93 -180 6 -121 -10 -191 -51 -235 -42 -44 -88 -56 -214 -56 l-103
0 0 252 0 251 116 -7 c80 -4 130 -12 159 -25z m-20 -675 c55 -23 89 -59 116
-120 20 -44 23 -67 23 -171 0 -108 -2 -125 -26 -177 -41 -88 -77 -104 -255
-115 l-113 -6 0 308 0 308 108 -5 c69 -3 121 -11 147 -22z"/>
</g>
</svg>
